<?xml version="1.0" encoding="UTF-8" standalone="no"?>
<!DOCTYPE svg PUBLIC "-//W3C//DTD SVG 1.1//EN" "http://www.w3.org/Graphics/SVG/1.1/DTD/svg11.dtd">
<svg width="100%" height="100%" viewBox="0 0 1000 1000" version="1.1" xmlns="http://www.w3.org/2000/svg" xmlns:xlink="http://www.w3.org/1999/xlink" xml:space="preserve" xmlns:serif="http://www.serif.com/" style="fill-rule:evenodd;clip-rule:evenodd;stroke-linejoin:round;stroke-miterlimit:2;">
    <rect id="Artboard1" x="0" y="0" width="1000" height="1000" style="fill:none;"/>
    <clipPath id="_clip1">
        <rect id="Artboard11" serif:id="Artboard1" x="0" y="0" width="1000" height="1000"/>
    </clipPath>
    <g clip-path="url(#_clip1)">
        <g id="brain-svgrepo-com--1-.svg" serif:id="brain-svgrepo-com (1).svg" transform="matrix(-2,2.44929e-16,-2.44929e-16,-2,500,500)">
            <g transform="matrix(1,0,0,1,-250,-250)">
                <g>
                    <g>
                        <path d="M209.042,0.856L164.222,0.872C123.382,0.872 90.15,34.1 90.15,74.944C90.15,80.228 90.758,85.596 91.958,90.952C51.582,103.676 23.702,141.432 23.702,184.08C23.702,200.012 27.646,215.7 35.042,229.696C18.646,245.944 8.47,268.464 8.47,293.32C8.47,333.888 35.566,368.228 72.61,379.236C71.306,384.304 70.618,389.512 70.618,394.792C70.618,429.2 98.61,457.188 133.014,457.188C136.922,457.188 140.862,456.796 144.798,456.032C146.262,480.524 166.642,500 191.498,500C217.154,500 238.282,479.248 238.282,453.656L238.282,30.096C238.278,13.972 225.17,0.856 209.042,0.856Z" style="fill:rgb(98,0,255);fill-rule:nonzero;"/>
                    </g>
                </g>
                <g>
                    <g>
                        <path d="M491.53,292.464C491.53,267.612 481.358,245.092 464.954,228.836C472.358,214.848 476.306,199.156 476.306,183.228C476.306,140.58 448.418,102.82 408.042,90.1C409.246,84.744 409.85,79.372 409.85,74.092C409.85,33.248 376.618,0.016 335.77,0.016L290.95,0C274.826,0 261.714,13.116 261.714,29.248L261.714,369.256C261.714,369.632 261.474,370.008 261.474,370.424C261.474,371.94 261.714,373.432 261.714,374.9L261.714,453.124L261.73,453.124C262.254,480.468 283.014,499.048 308.49,499.048C333.346,499.048 353.738,479.616 355.202,455.128C359.134,455.896 363.082,456.312 366.982,456.312C401.39,456.312 429.378,428.332 429.378,393.932C429.378,388.648 428.69,383.444 427.394,378.384C464.434,367.372 491.53,333.032 491.53,292.464Z" style="fill:rgb(98,0,255);fill-rule:nonzero;"/>
                    </g>
                </g>
            </g>
        </g>
        <g id="code_white_48dp.svg" transform="matrix(19.0807,0,0,20.4399,500,500)">
            <g transform="matrix(1,0,0,1,-24,-24)">
                <rect x="0" y="0" width="48" height="48" style="fill:none;fill-rule:nonzero;"/>
                <path d="M18.232,33.768C18.383,33.617 18.467,33.413 18.467,33.2C18.467,32.987 18.383,32.783 18.232,32.632C16.585,30.985 11.815,26.215 10.168,24.568C10.017,24.417 9.933,24.213 9.933,24C9.933,23.787 10.017,23.583 10.168,23.432C11.815,21.785 16.585,17.015 18.232,15.368C18.383,15.217 18.467,15.013 18.467,14.8C18.467,14.587 18.383,14.383 18.232,14.232C17.747,13.747 17.053,13.053 16.568,12.568C16.417,12.417 16.213,12.333 16,12.333C15.787,12.333 15.583,12.417 15.432,12.568C13.412,14.588 6.588,21.412 4.568,23.432C4.417,23.583 4.333,23.787 4.333,24C4.333,24.213 4.417,24.417 4.568,24.568C6.588,26.588 13.412,33.412 15.432,35.432C15.583,35.583 15.787,35.667 16,35.667C16.213,35.667 16.417,35.583 16.568,35.432C17.053,34.947 17.747,34.253 18.232,33.768ZM29.768,33.768C29.617,33.617 29.533,33.413 29.533,33.2C29.533,32.987 29.617,32.783 29.768,32.632C31.415,30.985 36.185,26.215 37.832,24.568C37.983,24.417 38.067,24.213 38.067,24C38.067,23.787 37.983,23.583 37.832,23.432C36.185,21.785 31.415,17.015 29.768,15.368C29.617,15.217 29.533,15.013 29.533,14.8C29.533,14.587 29.617,14.383 29.768,14.232C30.253,13.747 30.947,13.053 31.432,12.568C31.583,12.417 31.787,12.333 32,12.333C32.213,12.333 32.417,12.417 32.568,12.568C34.588,14.588 41.412,21.412 43.432,23.432C43.583,23.583 43.667,23.787 43.667,24C43.667,24.213 43.583,24.417 43.432,24.568C41.412,26.588 34.588,33.412 32.568,35.432C32.417,35.583 32.213,35.667 32,35.667C31.787,35.667 31.583,35.583 31.432,35.432C30.947,34.947 30.253,34.253 29.768,33.768Z" style="fill:white;fill-rule:nonzero;"/>
            </g>
        </g>
    </g>
</svg>
